<svg height="484pt" viewBox="-1 0 484 484.55065" width="484pt" xmlns="http://www.w3.org/2000/svg"><path d="m344.273438 178.71875v117.28125c0 4.417969-3.578126 8-8 8h-144c-4.417969 0-8-3.582031-8-8v-117.28125l80-58.71875zm0 0" fill="#ffc477"/><path d="m272.273438 125.839844-72 52.878906-16 11.761719v-11.761719l80-58.71875zm0 0" fill="#ffc477"/><path d="m288.273438 240h32v32h-32zm0 0" fill="#e6e7e8"/><path d="m216.273438 240h48v64h-48zm0 0" fill="#8b5e3c"/><path d="m280.273438 176c0 8.835938-7.160157 16-16 16-8.835938 0-16-7.164062-16-16s7.164062-16 16-16c8.839843 0 16 7.164062 16 16zm0 0" fill="#ffd422"/><path d="m272.273438 125.839844-72 52.878906-16 11.761719v-11.761719l80-58.71875zm0 0" fill="#ffb655"/><path d="m288.273438 240h16v32h-16zm0 0" fill="#d1d3d4"/><path d="m344.273438 178.71875-80-58.71875-80 58.71875-27.917969 20.480469c-2.445313 1.765625-5.382813 2.714843-8.398438 2.722656-4.796875-.003906-9.285156-2.367187-12-6.320313-4.253906-6.460937-2.628906-15.125 3.679688-19.601562l90.636719-64h10c13.257812 0 24-10.746094 24-24l32 32c5.667968 5.617188 13.875 7.835938 21.601562 5.839844l71.039062 50.160156c3.792969 2.683594 6.058594 7.035156 6.082032 11.679688-.007813 5.394531-3.046875 10.328124-7.863282 12.761718-4.816406 2.433594-10.589843 1.953125-14.9375-1.242187zm0 0" fill="#ff6243"/><path d="m475.234375 356.320312-43.757813 120.238282-45.121093-16.398438 5.441406-15.039062 32.878906-90.242188 5.441407-15.039062zm0 0" fill="#1e81ce"/><path d="m72.273438 112v24h-64v-128h64zm0 0" fill="#787680"/><path d="m236.835938 371.679688c.121093-1.347657.441406-2.667969.960937-3.917969 2.929687-8.066407 9.945313-13.953125 18.398437-15.441407l90.078126-15.921874 18.640624-3.277344 59.761719 21.757812-32.878906 90.242188-14.960937-5.441406-48.5625 16.320312-22.558594-8.160156-141.757813-51.601563c-11.082031-3.769531-18.019531-14.773437-16.640625-26.398437 1.03125-7.160156 5.234375-13.472656 11.445313-17.183594 6.207031-3.710938 13.761719-4.421875 20.554687-1.9375zm0 0" fill="#ffdaaa"/><path d="m264.273438 88c0 13.253906-10.742188 24-24 24h-56c0 17.679688-24 32-48 32s-48-14.320312-48-32h-16v-80h16l56-24h84.082031c12.753906-.015625 24.992187 5.050781 34 14.082031l65.039062 65.039063c7.90625 7.582031 9.5625 19.601562 4 29.039062-4.222656 6.457032-11.402343 10.363282-19.121093 10.398438-5.992188.023437-11.746094-2.335938-16-6.558594zm0 0" fill="#ffc477"/><path d="m264.273438 88 12.480468 12.480469c-.964844 1.644531-2.148437 3.152343-3.519531 4.480469-4.492187 4.507812-10.59375 7.039062-16.960937 7.039062h-16c13.257812 0 24-10.746094 24-24zm0 0" fill="#ff5023"/><path d="m72.273438 32h16v80h-16zm0 0" fill="#ffc477"/><path d="m216.273438 240h16v64h-16zm0 0" fill="#754c29"/><path d="m216.273438 240h48v8h-48zm0 0" fill="#754c29"/><path d="m482.5 352.902344c-.902344-1.917969-2.527344-3.402344-4.519531-4.125l-45.105469-16.417969c-4.15625-1.503906-8.742188.644531-10.246094 4.800781l-2.738281 7.519532-52.246094-19.023438c-1.320312-.476562-2.738281-.601562-4.121093-.367188l-108.726563 19.199219c-9.847656 1.761719-18.3125 8.015625-22.890625 16.910157l-49.878906-18.199219c-7.96875-2.917969-16.773438-2.527344-24.449219 1.089843-9.75 4.550782-16.570313 13.683594-18.160156 24.328126-1.988281 15.40625 7.136719 30.089843 21.832031 35.128906l141.730469 51.582031 22.550781 8.207031c1.707031.628906 3.574219.652344 5.296875.066406l45.878906-15.488281 4.878907 1.765625-2.734376 7.527344c-1.503906 4.15625.644532 8.746094 4.800782 10.25l45.109375 16.414062c4.15625 1.507813 8.746093-.640624 10.25-4.796874l43.777343-120.28125c.710938-1.988282.605469-4.175782-.289062-6.089844zm-108.257812 79.203125-45.871094 15.488281-161.648438-58.867188c-7.480468-2.488281-12.25-9.820312-11.488281-17.671874.695313-4.769532 3.496094-8.972657 7.628906-11.453126 4.136719-2.480468 9.164063-2.976562 13.699219-1.34375l51.90625 18.894532c.023438 1.472656.144531 2.941406.359375 4.398437 3.101563 17.375 19.660156 28.972657 37.046875 25.953125l90.0625-15.878906-2.78125-15.753906-90.023438 15.882812c-8.679687 1.507813-16.949218-4.257812-18.539062-12.921875-.332031-1.824219-.316406-3.691406.042969-5.511719.058593-.265624.105469-.53125.132812-.800781.117188-.679687.300781-1.347656.554688-1.992187 1.96875-5.367188 6.636719-9.289063 12.261719-10.304688l106.59375-18.789062 50.238281 18.285156-27.359375 75.203125-7.519532-2.730469c-1.699218-.644531-3.570312-.6875-5.296874-.121094zm52.433593 34.214843-30.074219-10.945312 38.304688-105.246094 30.074219 10.941406zm0 0"/><path d="m161.074219 205.65625 15.199219-11.152344v101.496094c0 8.835938 7.164062 16 16 16h144c8.839843 0 16-7.164062 16-16v-101.488281l15.203124 11.152343c3.789063 2.789063 8.375 4.289063 13.078126 4.289063 7.535156.003906 14.570312-3.753906 18.761718-10.015625 6.632813-10.050781 4.070313-23.554688-5.785156-30.472656l-60.664062-42.832032c2.007812-1.8125 3.765624-3.882812 5.230468-6.152343 7.609375-12.582031 5.527344-28.75-5.023437-38.992188l-65.078125-65.082031c-10.480469-10.535156-24.738282-16.4453125-39.601563-16.40625h-84.121093c-1.082032-.00390625-2.15625.21875-3.148438.648438l-54.449219 23.351562h-6.402343v-16c0-4.417969-3.578126-8-8-8h-64c-4.417969 0-8 3.582031-8 8v128c0 4.417969 3.582031 8 8 8h64c4.421874 0 8-3.582031 8-8v-16h1.167968c5.730469 19.199219 31.457032 32 54.832032 32 23.378906 0 49.105468-12.800781 54.832031-32h13.96875l-70.070313 49.472656c-9.882812 7-12.386718 20.601563-5.648437 30.664063 7.304687 10.171875 21.40625 12.625 31.71875 5.519531zm-96.800781-77.65625h-48v-112h48zm160 168v-48h32v48zm112 0h-64v-56c0-4.417969-3.578126-8-8-8h-48c-4.417969 0-8 3.582031-8 8v56h-16v-113.230469l72-52.847656 72 52.847656zm-152-192c-4.417969 0-8 3.582031-8 8 0 12.113281-19.8125 24-40 24-20.183594 0-40-11.886719-40-24 0-4.417969-3.578126-8-8-8h-8v-64h8c1.085937.003906 2.160156-.21875 3.152343-.648438l54.449219-23.351562h82.480469c10.628906-.039062 20.828125 4.183594 28.320312 11.71875l65.085938 65.082031c5.257812 4.914063 6.4375 12.800781 2.859375 19.039063-2.511719 3.578125-6.4375 5.902344-10.78125 6.382812-4.339844.476563-8.679688-.933594-11.910156-3.878906l-30.03125-30.03125c-1.828126-16.09375-15.425782-28.265625-31.625-28.3125h-72v16h72c8.839843 0 16 7.164062 16 16s-7.160157 16-16 16zm-41.597657 87.199219c-1.878906-2.859375-1.171875-6.691407 1.597657-8.695313l88.539062-62.503906h7.460938c11.722656.117188 22.519531-6.34375 27.953124-16.726562l22.402344 22.398437c6.6875 6.632813 16.050782 9.828125 25.398438 8.671875l68.246094 48.160156c2.125 1.441406 3.152343 4.035156 2.589843 6.542969-.566406 2.503906-2.601562 4.40625-5.140625 4.800781-1.683594.308594-3.417968-.085937-4.800781-1.09375l-107.917969-79.203125c-2.820312-2.070312-6.65625-2.070312-9.472656 0l-107.839844 79.152344c-1.085937.789063-2.394531 1.214844-3.734375 1.21875-2.097656-.003906-4.0625-1.015625-5.28125-2.722656zm0 0"/><path d="m280.273438 240v32c0 4.417969 3.582031 8 8 8h32c4.421874 0 8-3.582031 8-8v-32c0-4.417969-3.578126-8-8-8h-32c-4.417969 0-8 3.582031-8 8zm16 8h16v16h-16zm0 0"/><path d="m240.273438 176c0 13.253906 10.746093 24 24 24 13.257812 0 24-10.746094 24-24s-10.742188-24-24-24c-13.253907 0-24 10.746094-24 24zm32 0c0 4.417969-3.578126 8-8 8-4.417969 0-8-3.582031-8-8s3.582031-8 8-8c4.421874 0 8 3.582031 8 8zm0 0"/></svg>